<?xml version="1.0" standalone="no"?>
<!DOCTYPE svg PUBLIC "-//W3C//DTD SVG 20010904//EN"
 "http://www.w3.org/TR/2001/REC-SVG-20010904/DTD/svg10.dtd">
<svg version="1.0" xmlns="http://www.w3.org/2000/svg"
 width="196.000000pt" height="195.000000pt" viewBox="0 0 196.000000 195.000000"
 preserveAspectRatio="xMidYMid meet">

<g transform="translate(0.000000,195.000000) scale(0.100000,-0.100000)"
fill="#1A95C9" stroke="none">
<path d="M474 1595 c-9 -22 2 -32 45 -39 22 -3 53 -17 68 -30 l28 -24 0 -526
c0 -597 7 -548 -88 -576 -40 -12 -52 -21 -52 -35 0 -19 10 -20 263 -23 l262
-2 0 24 c0 22 -6 26 -47 32 -67 9 -99 28 -112 65 -7 19 -11 111 -11 232 l0
199 23 -7 c53 -16 222 -17 297 -1 212 45 323 170 324 366 1 109 -33 189 -106
255 -96 86 -201 105 -596 105 -247 0 -294 -2 -298 -15z m626 -76 c102 -45 152
-131 153 -263 1 -206 -94 -316 -273 -316 -41 0 -92 5 -113 11 l-37 10 2 287 3
287 40 7 c63 10 176 -2 225 -23z"/>
</g>
</svg>
